<svg xmlns="http://www.w3.org/2000/svg" viewBox="0 0 23 23">
    <path fill="#da291c" d="M11.05 2.452V19.93a2.636 2.636 0 0 0 5.22.518 3.023 3.023 0 0 0 2.482-3.544 3.51 3.51 0 0 0 .223-6.407 3.023 3.023 0 0 0-.732-5.003A2.32 2.32 0 0 0 15.08 2.62v-.167A2.02 2.02 0 0 0 13.064.437a2.02 2.02 0 0 0-2.015 2.015Z"/>
    <path d="M14.935 4.86c-.517.538-1.448.538-1.965 0-.439-.406-1.041.197-.636.635.852.889 2.385.889 3.237 0 .405-.438-.197-1.04-.636-.636Z M21.395 13.651a3.929 3.929 0 0 0-1.706-3.257c1.3-1.59.843-4.088-.92-5.127.407-1.907-1.375-3.673-3.278-3.253-.607-2.922-4.803-2.569-4.89.438v6.715c.023.597.876.597.9 0V2.452c.073-2.016 2.927-2.1 3.126-.1-.403.24-.737.579-.975.99a.45.45 0 1 0 .78.45c.194-.336.483-.6.837-.763l.014-.007c1.478-.671 3.066.771 2.54 2.307l-.005.017a1.872 1.872 0 0 1-.83 1.002.45.45 0 0 0 .449.78 2.772 2.772 0 0 0 1.006-1c1.253.851 1.472 2.722.432 3.836a3.95 3.95 0 0 0-.414-.136.45.45 0 1 0-.232.869 3.062 3.062 0 0 1 .567.214c2.343 1.14 2.221 4.592-.192 5.568a3.06 3.06 0 0 1-1.959.127.45.45 0 1 0-.232.868c.63.17 1.308.18 1.941.028a2.56 2.56 0 0 1-2.156 2.502 2.58 2.58 0 0 1-1.082-.054.45.45 0 1 0-.233.87c.244.064.494.103.745.114-1.065 2.008-4.1 1.289-4.128-1.004v-6.715c-.024-.597-.876-.596-.9 0v6.715c.072 3.544 4.947 4.25 6.037.9a3.475 3.475 0 0 0 2.604-3.656 3.94 3.94 0 0 0 2.154-3.523Z M14.95 15.498a.45.45 0 0 0-.232-.869c-.5.134-.918.455-1.177.903-.259.449-.328.97-.194 1.47a.45.45 0 0 0 .87-.232 1.032 1.032 0 0 1 .103-.788c.139-.24.363-.412.63-.484ZM16.112 8.62a.45.45 0 0 0-.636 0c-.888.853-.888 2.386 0 3.238.438.405 1.042-.198.636-.636-.539-.517-.539-1.448 0-1.965a.45.45 0 0 0 0-.636ZM2.055 11.052a.45.45 0 0 0 .45-.45V7.453c-.024-.596-.876-.596-.9 0v3.149c0 .248.202.45.45.45ZM4.754 7.004a1.35 1.35 0 0 0-1.35 1.349v1.35c.075 1.79 2.625 1.788 2.699 0v-1.35a1.35 1.35 0 0 0-1.35-1.35Zm.45 2.698c-.025.597-.876.597-.9 0V8.353a.45.45 0 0 1 .9 0v1.35ZM8.352 7.004a1.35 1.35 0 0 0-1.35 1.349v1.35c.075 1.79 2.625 1.788 2.699 0v-1.35a1.35 1.35 0 0 0-1.35-1.35Zm.45 2.698c-.025.597-.876.597-.9 0V8.353a.45.45 0 0 1 .9 0ZM3.854 6.104a.45.45 0 0 0 .45-.45V2.506c-.024-.597-.876-.596-.9 0v3.148c0 .249.202.45.45.45ZM7.902 4.755v-1.35c-.074-1.79-2.625-1.788-2.699 0v1.35c.075 1.79 2.625 1.789 2.699 0Zm-.9 0c-.024.597-.875.596-.9 0v-1.35a.45.45 0 0 1 .9 0ZM9.251 6.104a.45.45 0 0 0 .45-.45V2.506c-.024-.597-.876-.596-.9 0v3.148c0 .249.202.45.45.45ZM5.653 11.951a.45.45 0 0 0-.45.45v3.148c.024.597.876.596.9 0v-3.148a.45.45 0 0 0-.45-.45ZM4.304 14.65V13.3c-.075-1.79-2.625-1.789-2.699 0v1.35c.074 1.79 2.625 1.789 2.699 0Zm-.9 0c-.025.596-.875.596-.9 0V13.3a.45.45 0 0 1 .9 0ZM8.352 11.951a1.35 1.35 0 0 0-1.35 1.35v1.349c.075 1.79 2.625 1.789 2.699 0V13.3a1.35 1.35 0 0 0-1.35-1.349Zm.45 2.699c-.025.596-.876.596-.9 0V13.3a.45.45 0 0 1 .9 0ZM7.452 16.898a.45.45 0 0 0-.45.45v3.149c.024.596.876.596.9 0v-3.149a.45.45 0 0 0-.45-.45ZM4.753 16.898a1.35 1.35 0 0 0-1.349 1.35v1.349c.075 1.79 2.625 1.79 2.699 0v-1.35a1.35 1.35 0 0 0-1.35-1.349Zm.45 2.699c-.025.597-.875.596-.9 0v-1.35c.025-.596.876-.596.9 0ZM9.251 16.898a.45.45 0 0 0-.45.45v3.149c.024.596.876.596.9 0v-3.149a.45.45 0 0 0-.45-.45ZM11.05 11.641a.45.45 0 1 0 0-.9c-.596.024-.596.876 0 .9Z"/>
</svg>
