<svg xmlns="http://www.w3.org/2000/svg" viewBox="0 0 512 512">
  <path fill="#f7222b" d="M489 325c8 6 13 15 13 25 0 18-15 33-33 33H43c-18 0-33-15-33-33 0-11 6-20 14-26l465 1z"/>
  <path fill="#ed732f" d="M476 231c14 0 26 11 26 25s-12 25-26 25H36c-14 0-26-11-26-25s12-25 26-25h440z"/>
  <path fill="#ff9d3b" d="M491 379v26c0 47-38 85-85 85H106c-47 0-85-38-85-85v-26h470zM336 231H52c-23 0-42-19-42-42C10 97 85 22 178 22h156c93 0 168 75 168 167 0 23-19 42-42 42H336z"/>
  <path fill="#21cc5a" d="M15 276c-13 24 5 44 10 47 12 9 29 9 41 0 13-8 29-8 42 0 12 9 29 9 41 0 13-8 29-8 42 0 12 9 29 9 41 0 7-5 16-7 24-6 8-1 17 1 24 6 12 9 29 9 41 0 13-8 29-8 42 0 12 9 29 9 41 0 13-8 29-8 42 0 12 9 29 9 41 0 5-3 23-23 10-47H15z"/>
  <path fill="#ffe48d" d="m185 321 149 108 138-99-38-5z"/>
  <path d="M502 323c8-11 15-30 5-49a35 35 0 0 0-11-48c10-9 16-22 16-37 0-98-80-177-178-177H178C80 12 0 91 0 189c0 15 6 28 16 37a36 36 0 0 0-11 48c-10 19-3 38 5 49a43 43 0 0 0 1 55l-1 1v26c0 53 43 95 96 95h300c53 0 96-42 96-95v-26l-1-1a43 43 0 0 0 1-55zm-276 15 12-6c5-4 11-5 17-5h2c6 0 12 1 17 5 16 11 37 11 53 0 9-6 21-6 30 0 16 11 37 11 53 0 9-6 21-6 30 0l6 4-112 81-108-79zM31 315s-13-12-9-26c4 1 9 3 14 3h440c5 0 10-2 14-3 4 14-9 26-9 26-9 6-20 6-29 0a47 47 0 0 0-53 0h-1c-8 6-20 6-29 0a47 47 0 0 0-53 0c-9 6-21 6-30 0s-19-9-30-8c-11-1-21 2-30 8s-21 6-30 0a47 47 0 0 0-53 0c-9 6-21 6-29 0h-1a47 47 0 0 0-53 0c-9 6-20 6-29 0zm446 24 9-3a22 22 0 0 1-17 36h-38l46-33zm-141-98a10 10 0 0 0 0-21H52c-17 0-31-14-31-31 0-86 70-157 157-157h156c87 0 157 71 157 157 0 17-14 31-31 31h-51a10 10 0 0 0 0 21h67a15 15 0 0 1 0 30H36a15 15 0 0 1 0-30h300zm70 239H106c-41 0-75-34-75-75v-14l12 2h105a10 10 0 0 0 0-21H43a22 22 0 0 1-17-36 47 47 0 0 0 46-4c9-6 21-6 30 0 16 11 37 11 53 0 7-5 16-6 24-3l59 43h-20a10 10 0 0 0 0 21h48l61 45a10 10 0 0 0 13 0l62-45h67l12-2v14c0 41-34 75-75 75z M132 161c-6 0-11 5-11 11a10 10 0 0 0 21 0c0-6-5-11-10-11zm62-19c-6 0-11 5-11 11v1a10 10 0 0 0 21 0v-1c0-6-4-11-10-11zm-124 0c-6 0-11 5-11 11v1a10 10 0 0 0 21 0v-1c0-6-5-11-10-11zm186 19c-6 0-10 5-10 11a10 10 0 0 0 20 0c0-6-4-11-10-11zm62-19c-6 0-10 5-10 11v1a10 10 0 0 0 21 0v-1c0-6-5-11-11-11zm62 41c6 0 11-5 11-11a10 10 0 0 0-21 0c0 6 5 11 10 11zm62-19c6 0 11-5 11-10v-1a10 10 0 0 0-21 0v1c0 5 5 10 10 10zM161 84c-5 0-10 5-10 10v1a10 10 0 0 0 21 0v-1c0-5-5-10-11-10zm63 19c-6 0-11 4-11 10v1a10 10 0 0 0 21 0v-1c0-6-5-10-10-10zm62-19c-6 0-11 5-11 10v1a10 10 0 0 0 21 0v-1c0-5-4-10-10-10zm72 30v-1a10 10 0 0 0-21 0v1a10 10 0 0 0 21 0zM183 372a10 10 0 0 0 0 21 10 10 0 0 0 0-21zm188-131h1a10 10 0 0 0 0-21h-1a10 10 0 0 0 0 21z"/>
</svg>
